<?xml version="1.0" encoding="us-ascii" standalone="no"?><svg xmlns="http://www.w3.org/2000/svg" xmlns:xlink="http://www.w3.org/1999/xlink" contentStyleType="text/css" height="202px" preserveAspectRatio="none" style="width:847px;height:202px;background:#F2F4F7;" version="1.1" viewBox="0 0 847 202" width="847px" zoomAndPan="magnify"><defs/><g><rect fill="#F2F4F7" height="202" style="stroke:none;stroke-width:1.0;" width="847" x="0" y="0"/><text fill="#000000" font-family="IBM Plex Sans" font-size="14" font-weight="bold" lengthAdjust="spacing" textLength="229.4375" x="302.0313" y="24.5332">UC 3.3 &#8212; Faglig afklaring i dialog</text><!--entity Henviser--><g id="elem_Henviser"><ellipse cx="813" cy="134.7994" fill="#FBF0EB" rx="16" ry="16" style="stroke:#C75D3A;stroke-width:0.5;"/><path d="M813,154.7994 C817,154.7994 820,154.7994 824,150.7994 C832,150.7994 840,158.7994 840,166.7994 L840,170.7994 C840,174.7994 836,178.7994 832,178.7994 L794,178.7994 C790,178.7994 786,174.7994 786,170.7994 L786,166.7994 C786,158.7994 794,150.7994 802,150.7994 C806,154.7994 809,154.7994 813,154.7994 " fill="#FBF0EB" style="stroke:#C75D3A;stroke-width:0.5;"/><text fill="#000000" font-family="IBM Plex Sans" font-size="14" lengthAdjust="spacing" textLength="55" x="785.5" y="193.8326">Henviser</text></g><!--entity Visitator--><g id="elem_Visitator"><ellipse cx="33" cy="134.7994" fill="#FBF0EB" rx="16" ry="16" style="stroke:#C75D3A;stroke-width:0.5;"/><path d="M33,154.7994 C37,154.7994 40,154.7994 44,150.7994 C52,150.7994 60,158.7994 60,166.7994 L60,170.7994 C60,174.7994 56,178.7994 52,178.7994 L14,178.7994 C10,178.7994 6,174.7994 6,170.7994 L6,166.7994 C6,158.7994 14,150.7994 22,150.7994 C26,154.7994 29,154.7994 33,154.7994 " fill="#FBF0EB" style="stroke:#C75D3A;stroke-width:0.5;"/><text fill="#000000" font-family="IBM Plex Sans" font-size="14" lengthAdjust="spacing" textLength="51" x="7.5" y="193.8326">Visitator</text></g><!--entity C1--><g id="elem_C1"><rect fill="#FBF0EB" height="37.6094" rx="2.5" ry="2.5" style="stroke:#C75D3A;stroke-width:0.5;" width="137" x="441.5" y="138.7994"/><text fill="#000000" font-family="IBM Plex Sans" font-size="14" lengthAdjust="spacing" textLength="117" x="451.5" y="163.3326">Communication [1]</text></g><!--entity C2--><g id="elem_C2"><rect fill="#FBF0EB" height="55.2188" rx="2.5" ry="2.5" style="stroke:#C75D3A;stroke-width:0.5;" width="137" x="613.5" y="130.2994"/><text fill="#000000" font-family="IBM Plex Sans" font-size="14" lengthAdjust="spacing" textLength="117" x="623.5" y="154.8326">Communication [2]</text><text fill="#000000" font-family="IBM Plex Sans" font-size="14" lengthAdjust="spacing" textLength="102" x="623.5" y="172.442">(in-response-to)</text></g><!--entity CN--><g id="elem_CN"><rect fill="#FBF0EB" height="55.2188" rx="2.5" ry="2.5" style="stroke:#C75D3A;stroke-width:0.5;" width="137" x="95.5" y="130.2994"/><text fill="#000000" font-family="IBM Plex Sans" font-size="14" lengthAdjust="spacing" textLength="117" x="105.5" y="154.8326">Communication [n]</text><text fill="#000000" font-family="IBM Plex Sans" font-size="14" lengthAdjust="spacing" textLength="69" x="105.5" y="172.442">(afg&#248;relse)</text></g><g id="elem_GMN14"><path d="M267.5,136.2994 L267.5,153.7994 L232.59,157.7994 L267.5,161.7994 L267.5,179.0025 A0,0 0 0 0 267.5,179.0025 L406.5,179.0025 A0,0 0 0 0 406.5,179.0025 L406.5,146.2994 L396.5,136.2994 L267.5,136.2994 A0,0 0 0 0 267.5,136.2994 " fill="#FBF0EB" style="stroke:#C75D3A;stroke-width:0.5;"/><path d="M396.5,136.2994 L396.5,146.2994 L406.5,146.2994 L396.5,136.2994 " fill="#FBF0EB" style="stroke:#C75D3A;stroke-width:0.5;"/><text fill="#000000" font-family="IBM Plex Sans" font-size="13" lengthAdjust="spacing" textLength="118" x="273.5" y="154.7945">&#8594; UC 2.3 Acceptere</text><text fill="#000000" font-family="IBM Plex Sans" font-size="13" lengthAdjust="spacing" textLength="93" x="273.5" y="171.1461">&#8594; UC 2.4 Afvise</text></g><!--link Visitator to C1--><g id="link_Visitator_C1"><path d="M58.74,118.0894 C68.67,106.2394 81.12,94.7094 95.5,88.2994 C158.63,60.1694 340.39,68.1594 406.5,88.2994 C438.8,98.1394 465.6371,117.8584 485.2171,134.8384 " fill="none" id="Visitator-to-C1" style="stroke:#C75D3A;stroke-width:1.0;"/><polygon fill="#C75D3A" points="489.75,138.7694,485.5713,129.8509,485.9726,135.4935,480.33,135.8948,489.75,138.7694" style="stroke:#C75D3A;stroke-width:1.0;"/></g><!--link C1 to Henviser--><g id="link_C1_Henviser"><path d="M530.25,138.7694 C549.83,121.7894 581.2,98.1394 613.5,88.2994 C671.75,70.5594 694.88,63.5194 750.5,88.2994 C764.88,94.7094 773.4763,101.6406 783.4063,113.4906 " fill="none" id="C1-to-Henviser" style="stroke:#C75D3A;stroke-width:1.0;"/><polygon fill="#C75D3A" points="787.26,118.0894,784.5453,108.622,784.0486,114.257,778.4136,113.7603,787.26,118.0894" style="stroke:#C75D3A;stroke-width:1.0;"/></g><!--reverse link C2 to Henviser--><g id="link_C2_Henviser"><path d="M756.57,157.7994 C768.11,157.7994 773.66,157.7994 785.2,157.7994 " fill="none" id="C2-backto-Henviser" style="stroke:#C75D3A;stroke-width:1.0;"/><polygon fill="#C75D3A" points="750.57,157.7994,759.57,161.7994,755.57,157.7994,759.57,153.7994,750.57,157.7994" style="stroke:#C75D3A;stroke-width:1.0;"/></g><!--reverse link Visitator to C2--><g id="link_Visitator_C2"><path d="M62.5937,113.4906 C72.5237,101.6406 81.12,94.7094 95.5,88.2994 C193.54,44.6094 475.82,57.0294 578.5,88.2994 C605.62,96.5594 632.09,114.5694 651.47,130.1794 " fill="none" id="Visitator-backto-C2" style="stroke:#C75D3A;stroke-width:1.0;"/><polygon fill="#C75D3A" points="58.74,118.0894,67.5864,113.7603,61.9514,114.257,61.4547,108.622,58.74,118.0894" style="stroke:#C75D3A;stroke-width:1.0;"/></g><!--link Visitator to CN--><g id="link_Visitator_CN"><path d="M60.63,157.7994 C72.21,157.7994 77.78,157.7994 89.36,157.7994 " fill="none" id="Visitator-to-CN" style="stroke:#C75D3A;stroke-width:1.0;"/><polygon fill="#C75D3A" points="95.36,157.7994,86.36,153.7994,90.36,157.7994,86.36,161.7994,95.36,157.7994" style="stroke:#C75D3A;stroke-width:1.0;"/></g><!--SRC=[ZL8xJiD04Ett52FJG654dA1qIBR1We88AO86KWpssAootercDmGwAWw0E0mzD-4as2PnB44Iklcyz_RDx3Zf5C5r3Ft3Fdozl4E2XP85O3vLo58N826Jg4mXX9rAFKF64Z1rXiVkkQBYWgmfgTEyntHQi9dhB3RACEmbGJ98XXr4HZdEbKkCTYCi2RoBw1Ak53t16BNrEiYGsIoMCl7m-BGVTfkrYyXmHhmTyijGb1oTHHqOK-fG5ugsgwrXEnMrSJl46iG67T4i6Cv9FqfBl4nlf9KEgqYqHi2BJLdEjKpHIQFXjZVn02t4lLPhCpQOtEbzgNqcEpFQak_CmGyx-0TRrspCYyyF9cLfoHojPsZjWi-oU73-IMLBLCxQj9rl5O2lA6-0WQXChBBru7zfZeIeTmbD0KnULm2-Nj_gimwgimxJb6QEcBhb0OHv_QOWdJL_8Ru1]--></g></svg>