<?xml version="1.0" encoding="us-ascii" standalone="no"?><svg xmlns="http://www.w3.org/2000/svg" xmlns:xlink="http://www.w3.org/1999/xlink" contentStyleType="text/css" height="229px" preserveAspectRatio="none" style="width:553px;height:229px;background:#FFFFFF;" version="1.1" viewBox="0 0 553 229" width="553px" zoomAndPan="magnify"><defs/><g><text fill="#000000" font-family="sans-serif" font-size="14" font-weight="bold" lengthAdjust="spacing" textLength="410" x="64.6836" y="24.5332">Use Case-katalog for FHIR-baseret henvisningsh&#229;ndtering</text><!--entity Henviser--><g id="elem_Henviser"><ellipse cx="33.5" cy="52.6094" fill="#F1F1F1" rx="8" ry="8" style="stroke:#181818;stroke-width:0.5;"/><path d="M33.5,60.6094 L33.5,87.6094 M20.5,68.6094 L46.5,68.6094 M33.5,87.6094 L20.5,102.6094 M33.5,87.6094 L46.5,102.6094 " fill="none" style="stroke:#181818;stroke-width:0.5;"/><text fill="#000000" font-family="sans-serif" font-size="14" lengthAdjust="spacing" textLength="55" x="6" y="118.6426">Henviser</text></g><!--entity Visitator--><g id="elem_Visitator"><ellipse cx="198" cy="154.6094" fill="#F1F1F1" rx="8" ry="8" style="stroke:#181818;stroke-width:0.5;"/><path d="M198,162.6094 L198,189.6094 M185,170.6094 L211,170.6094 M198,189.6094 L185,204.6094 M198,189.6094 L211,204.6094 " fill="none" style="stroke:#181818;stroke-width:0.5;"/><text fill="#000000" font-family="sans-serif" font-size="14" lengthAdjust="spacing" textLength="51" x="172.5" y="220.6426">Visitator</text></g><g id="elem_UC11"><ellipse cx="197.832" cy="83.0128" fill="#F1F1F1" rx="75.832" ry="27.9034" style="stroke:#181818;stroke-width:0.5;"/><text fill="#000000" font-family="sans-serif" font-size="14" lengthAdjust="spacing" textLength="91" x="152.332" y="77.9366">1.1 Oprette ny</text><text fill="#000000" font-family="sans-serif" font-size="14" lengthAdjust="spacing" textLength="68" x="163.832" y="95.546">henvisning</text></g><g id="elem_UC12"><ellipse cx="451.6836" cy="83.0269" fill="#F1F1F1" rx="95.6836" ry="27.9176" style="stroke:#181818;stroke-width:0.5;"/><text fill="#000000" font-family="sans-serif" font-size="14" lengthAdjust="spacing" textLength="119" x="389.9754" y="78.5444">1.2 Tilknytte klinisk</text><text fill="#000000" font-family="sans-serif" font-size="14" lengthAdjust="spacing" textLength="93" x="402.9754" y="96.1538">dokumentation</text></g><g id="elem_UC21"><ellipse cx="451.4889" cy="179.0128" fill="#F1F1F1" rx="81.4889" ry="27.9034" style="stroke:#181818;stroke-width:0.5;"/><text fill="#000000" font-family="sans-serif" font-size="14" lengthAdjust="spacing" textLength="99" x="401.9889" y="173.9366">2.1 Modtage og</text><text fill="#000000" font-family="sans-serif" font-size="14" lengthAdjust="spacing" textLength="46" x="428.4889" y="191.546">kvittere</text></g><!--link Henviser to UC11--><g id="link_Henviser_UC11"><path d="M61.33,83.1094 C77.92,83.1094 94.11,83.1094 115.73,83.1094 " fill="none" id="Henviser-to-UC11" style="stroke:#181818;stroke-width:1.0;"/><polygon fill="#181818" points="121.73,83.1094,112.73,79.1094,116.73,83.1094,112.73,87.1094,121.73,83.1094" style="stroke:#181818;stroke-width:1.0;"/></g><!--link Visitator to UC21--><g id="link_Visitator_UC21"><path d="M223.57,184.5194 C257.25,183.7194 313.3617,182.3824 364.1017,181.1724 " fill="none" id="Visitator-to-UC21" style="stroke:#181818;stroke-width:1.0;"/><polygon fill="#181818" points="370.1,181.0294,361.0072,177.2451,365.1014,181.1486,361.1979,185.2428,370.1,181.0294" style="stroke:#181818;stroke-width:1.0;"/></g><!--link UC11 to UC12--><g id="link_UC11_UC12"><path d="M274.12,83.1094 C299.74,83.1094 322.72,83.1094 349.69,83.1094 " fill="none" id="UC11-to-UC12" style="stroke:#181818;stroke-width:1.0;"/><polygon fill="#181818" points="355.69,83.1094,346.69,79.1094,350.69,83.1094,346.69,87.1094,355.69,83.1094" style="stroke:#181818;stroke-width:1.0;"/><text fill="#000000" font-family="sans-serif" font-size="13" lengthAdjust="spacing" textLength="20" x="305" y="79.6045">evt.</text></g><!--link UC11 to UC21--><g id="link_UC11_UC21"><path d="M251.42,103.1194 C293.88,119.3294 347.9047,139.9492 390.8047,156.3292 " fill="none" id="UC11-to-UC21" style="stroke:#181818;stroke-width:1.0;"/><polygon fill="#181818" points="396.41,158.4694,389.4288,151.5222,391.7389,156.6859,386.5752,158.9959,396.41,158.4694" style="stroke:#181818;stroke-width:1.0;"/></g><!--SRC=[lPEnRi8m48PtFyM9XIcHucmTkY1LT42LgjA9nKsES4fwHlP1nGlqJVeal5Wl420IxOBQUB8l__c__rCi90t2F29CNCIaTk8QNy7I1tYOFZudRreDAB12tb9auYgkzbzS2WRT6zFWKa0y1AfM0YK5B8Gy6pDERbbcV9u5iZIxzHPNY0QO7cR6q1rVAP8utHcpYLYq5YFrWAUr1XG4tYtu4dC4Bi9yacLziOKNQchUjVAw8QPOBxZqzUOTMQ_MuASsUscpwZ7pfRWAmLSBhhUa_G4xgSsCEKqAIN9_D3qFsvLQLVlXfB1m1xYLj5ziDOmVQpNw6_vs0Fv38RM_8RN_HIyVW5uE-qyk0u9RHjHN-TCVdFUvAUv06Z4SmQq3-K1zTFOQNNwDpXxGvRtZ6LsQfjy0]--></g></svg>