<?xml version="1.0" encoding="us-ascii" standalone="no"?><svg xmlns="http://www.w3.org/2000/svg" xmlns:xlink="http://www.w3.org/1999/xlink" contentStyleType="text/css" height="1803px" preserveAspectRatio="none" style="width:427px;height:1803px;background:#F2F4F7;" version="1.1" viewBox="0 0 427 1803" width="427px" zoomAndPan="magnify"><defs/><g><rect fill="#F2F4F7" height="1803" style="stroke:none;stroke-width:1.0;" width="427" x="0" y="0"/><text fill="#000000" font-family="IBM Plex Sans" font-size="22" font-weight="bold" lengthAdjust="spacing" textLength="394.6875" x="15" y="37.8379">FHIR Henvisning &#8212; Use Case Overblik</text><!--cluster **Sektion 1** ? Henviser--><g id="cluster_**Sektion 1** &#183; Henviser"><rect fill="#EEEAF7" height="563" rx="4" ry="4" style="stroke:#000000;stroke-width:1.0;" width="203" x="167.3438" y="60.6719"/><text fill="#000000" font-family="IBM Plex Sans" font-size="14" font-weight="bold" lengthAdjust="spacing" textLength="65" x="197.8438" y="77.2051">Sektion 1</text><text fill="#000000" font-family="IBM Plex Sans" font-size="14" font-weight="bold" lengthAdjust="spacing" textLength="73" x="266.8438" y="77.2051">&#183; Henviser</text></g><!--cluster **Sektion 2** ? Visitator--><g id="cluster_**Sektion 2** &#183; Visitator"><rect fill="#E6F4F6" height="563" rx="4" ry="4" style="stroke:#000000;stroke-width:1.0;" width="208" x="164.8438" y="1234.6719"/><text fill="#000000" font-family="IBM Plex Sans" font-size="14" font-weight="bold" lengthAdjust="spacing" textLength="65" x="200.8438" y="1251.2051">Sektion 2</text><text fill="#000000" font-family="IBM Plex Sans" font-size="14" font-weight="bold" lengthAdjust="spacing" textLength="67" x="269.8438" y="1251.2051">&#183; Visitator</text></g><!--cluster **Sektion 3** ? Udvekslingsdialog--><g id="cluster_**Sektion 3** &#183; Udvekslingsdialog"><rect fill="#FBF0EB" height="563" rx="4" ry="4" style="stroke:#000000;stroke-width:1.0;" width="242" x="147.8438" y="647.6719"/><text fill="#000000" font-family="IBM Plex Sans" font-size="14" font-weight="bold" lengthAdjust="spacing" textLength="65" x="164.8438" y="664.2051">Sektion 3</text><text fill="#000000" font-family="IBM Plex Sans" font-size="14" font-weight="bold" lengthAdjust="spacing" textLength="139" x="233.8438" y="664.2051">&#183; Udvekslingsdialog</text></g><g id="elem_UC11"><ellipse cx="268.7407" cy="124.5753" fill="#FFFFFF" rx="62.397" ry="27.9034" style="stroke:#D8DFE8;stroke-width:1.0;"/><text fill="#1B2333" font-family="IBM Plex Sans" font-size="14" lengthAdjust="spacing" textLength="72" x="232.7407" y="119.4991">1.1 Oprette</text><text fill="#1B2333" font-family="IBM Plex Sans" font-size="14" lengthAdjust="spacing" textLength="68" x="234.7407" y="137.1085">henvisning</text></g><g id="elem_UC12"><ellipse cx="269.09" cy="215.5753" fill="#FFFFFF" rx="77.2462" ry="27.9034" style="stroke:#D8DFE8;stroke-width:1.0;"/><text fill="#1B2333" font-family="IBM Plex Sans" font-size="14" lengthAdjust="spacing" textLength="77" x="230.59" y="210.4991">1.2 Tilknytte</text><text fill="#1B2333" font-family="IBM Plex Sans" font-size="14" lengthAdjust="spacing" textLength="93" x="222.59" y="228.1085">dokumentation</text></g><g id="elem_UC13"><ellipse cx="268.9123" cy="306.5753" fill="#FFFFFF" rx="59.5685" ry="27.9034" style="stroke:#D8DFE8;stroke-width:1.0;"/><text fill="#1B2333" font-family="IBM Plex Sans" font-size="14" lengthAdjust="spacing" textLength="67" x="235.4123" y="301.4991">1.3 &#198;ndre</text><text fill="#1B2333" font-family="IBM Plex Sans" font-size="14" lengthAdjust="spacing" textLength="68" x="234.9123" y="319.1085">henvisning</text></g><g id="elem_UC14"><ellipse cx="269.0752" cy="397.5753" fill="#FFFFFF" rx="85.7315" ry="27.9034" style="stroke:#D8DFE8;stroke-width:1.0;"/><text fill="#1B2333" font-family="IBM Plex Sans" font-size="14" lengthAdjust="spacing" textLength="105" x="216.5752" y="392.4991">1.4 Tilbagekalde</text><text fill="#1B2333" font-family="IBM Plex Sans" font-size="14" lengthAdjust="spacing" textLength="68" x="235.0752" y="410.1085">henvisning</text></g><g id="elem_UC15"><ellipse cx="268.8829" cy="488.5753" fill="#FFFFFF" rx="76.5391" ry="27.9034" style="stroke:#D8DFE8;stroke-width:1.0;"/><text fill="#1B2333" font-family="IBM Plex Sans" font-size="14" lengthAdjust="spacing" textLength="92" x="222.8829" y="483.4991">1.5 Monitorere</text><text fill="#1B2333" font-family="IBM Plex Sans" font-size="14" lengthAdjust="spacing" textLength="38" x="249.8829" y="501.1085">status</text></g><g id="elem_UC16"><ellipse cx="268.6905" cy="579.5753" fill="#FFFFFF" rx="67.3467" ry="27.9034" style="stroke:#D8DFE8;stroke-width:1.0;"/><text fill="#1B2333" font-family="IBM Plex Sans" font-size="14" lengthAdjust="spacing" textLength="79" x="229.1905" y="574.4991">1.6 Modtage</text><text fill="#1B2333" font-family="IBM Plex Sans" font-size="14" lengthAdjust="spacing" textLength="59" x="239.1905" y="592.1085">afg&#248;relse</text></g><g id="elem_UC21"><ellipse cx="268.8326" cy="1298.5753" fill="#FFFFFF" rx="81.4889" ry="27.9034" style="stroke:#D8DFE8;stroke-width:1.0;"/><text fill="#1B2333" font-family="IBM Plex Sans" font-size="14" lengthAdjust="spacing" textLength="99" x="219.3326" y="1293.4991">2.1 Modtage og</text><text fill="#1B2333" font-family="IBM Plex Sans" font-size="14" lengthAdjust="spacing" textLength="46" x="245.8326" y="1311.1085">kvittere</text></g><g id="elem_UC22"><ellipse cx="268.6255" cy="1389.5753" fill="#FFFFFF" rx="80.7817" ry="27.9034" style="stroke:#D8DFE8;stroke-width:1.0;"/><text fill="#1B2333" font-family="IBM Plex Sans" font-size="14" lengthAdjust="spacing" textLength="98" x="219.6255" y="1384.4991">2.2 Triagere og</text><text fill="#1B2333" font-family="IBM Plex Sans" font-size="14" lengthAdjust="spacing" textLength="57" x="240.1255" y="1402.1085">prioritere</text></g><g id="elem_UC23"><ellipse cx="268.6966" cy="1480.5753" fill="#FFFFFF" rx="87.8528" ry="27.9034" style="stroke:#D8DFE8;stroke-width:1.0;"/><text fill="#1B2333" font-family="IBM Plex Sans" font-size="14" lengthAdjust="spacing" textLength="108" x="214.6966" y="1475.4991">2.3 Acceptere og</text><text fill="#1B2333" font-family="IBM Plex Sans" font-size="14" lengthAdjust="spacing" textLength="39" x="249.1966" y="1493.1085">booke</text></g><g id="elem_UC24"><ellipse cx="268.9123" cy="1571.5753" fill="#FFFFFF" rx="59.5685" ry="27.9034" style="stroke:#D8DFE8;stroke-width:1.0;"/><text fill="#1B2333" font-family="IBM Plex Sans" font-size="14" lengthAdjust="spacing" textLength="62" x="237.9123" y="1566.4991">2.4 Afvise</text><text fill="#1B2333" font-family="IBM Plex Sans" font-size="14" lengthAdjust="spacing" textLength="68" x="234.9123" y="1584.1085">henvisning</text></g><g id="elem_UC25"><ellipse cx="268.8681" cy="1662.5753" fill="#FFFFFF" rx="85.0244" ry="27.9034" style="stroke:#D8DFE8;stroke-width:1.0;"/><text fill="#1B2333" font-family="IBM Plex Sans" font-size="14" lengthAdjust="spacing" textLength="104" x="216.8681" y="1657.4991">2.5 Videresende</text><text fill="#1B2333" font-family="IBM Plex Sans" font-size="14" lengthAdjust="spacing" textLength="68" x="234.8681" y="1675.1085">henvisning</text></g><g id="elem_UC26"><ellipse cx="268.7052" cy="1753.5753" fill="#FFFFFF" rx="58.8614" ry="27.9034" style="stroke:#D8DFE8;stroke-width:1.0;"/><text fill="#1B2333" font-family="IBM Plex Sans" font-size="14" lengthAdjust="spacing" textLength="67" x="235.2052" y="1748.4991">2.6 &#198;ndre</text><text fill="#1B2333" font-family="IBM Plex Sans" font-size="14" lengthAdjust="spacing" textLength="48" x="244.7052" y="1766.1085">prioritet</text></g><g id="elem_UC31"><ellipse cx="268.8326" cy="1075.5753" fill="#FFFFFF" rx="81.4889" ry="27.9034" style="stroke:#D8DFE8;stroke-width:1.0;"/><text fill="#1B2333" font-family="IBM Plex Sans" font-size="14" lengthAdjust="spacing" textLength="99" x="219.3326" y="1070.4991">3.1 Anmode om</text><text fill="#1B2333" font-family="IBM Plex Sans" font-size="14" lengthAdjust="spacing" textLength="73" x="232.3326" y="1088.1085">supplement</text></g><g id="elem_UC32"><ellipse cx="269.0691" cy="711.5753" fill="#FFFFFF" rx="65.2254" ry="27.9034" style="stroke:#D8DFE8;stroke-width:1.0;"/><text fill="#1B2333" font-family="IBM Plex Sans" font-size="14" lengthAdjust="spacing" textLength="76" x="231.0691" y="706.4991">3.2 Besvare</text><text fill="#1B2333" font-family="IBM Plex Sans" font-size="14" lengthAdjust="spacing" textLength="73" x="232.5691" y="724.1085">supplement</text></g><g id="elem_UC33"><ellipse cx="268.8768" cy="984.5753" fill="#FFFFFF" rx="56.033" ry="27.9034" style="stroke:#D8DFE8;stroke-width:1.0;"/><text fill="#1B2333" font-family="IBM Plex Sans" font-size="14" lengthAdjust="spacing" textLength="63" x="237.3768" y="979.4991">3.3 Faglig</text><text fill="#1B2333" font-family="IBM Plex Sans" font-size="14" lengthAdjust="spacing" textLength="54" x="241.8768" y="997.1085">afklaring</text></g><g id="elem_UC34"><ellipse cx="268.9192" cy="1166.6369" fill="#FFFFFF" rx="105.0754" ry="27.9651" style="stroke:#D8DFE8;stroke-width:1.0;"/><text fill="#1B2333" font-family="IBM Plex Sans" font-size="14" lengthAdjust="spacing" textLength="132" x="199.9192" y="1162.3488">3.4 Statusnotifikation</text><text fill="#1B2333" font-family="IBM Plex Sans" font-size="14" lengthAdjust="spacing" textLength="68" x="231.9192" y="1179.9582">til henviser</text></g><g id="elem_UC35"><ellipse cx="269.0189" cy="802.5753" fill="#FFFFFF" rx="70.1751" ry="27.9034" style="stroke:#D8DFE8;stroke-width:1.0;"/><text fill="#1B2333" font-family="IBM Plex Sans" font-size="14" lengthAdjust="spacing" textLength="83" x="227.5189" y="797.4991">3.5 Alternativ</text><text fill="#1B2333" font-family="IBM Plex Sans" font-size="14" lengthAdjust="spacing" textLength="55" x="241.5189" y="815.1085">visitation</text></g><g id="elem_UC36"><ellipse cx="268.6962" cy="893.6335" fill="#FFFFFF" rx="104.3525" ry="27.9616" style="stroke:#D8DFE8;stroke-width:1.0;"/><text fill="#1B2333" font-family="IBM Plex Sans" font-size="14" lengthAdjust="spacing" textLength="131" x="200.1962" y="889.3454">3.6 Korrektionsaftale</text><text fill="#1B2333" font-family="IBM Plex Sans" font-size="14" lengthAdjust="spacing" textLength="41" x="245.1962" y="906.9548">om fejl</text></g><!--entity H--><g id="elem_H"><ellipse cx="76.3438" cy="504.1719" fill="#EEEAF7" rx="8" ry="8" style="stroke:#4B3F8A;stroke-width:1.0;"/><path d="M76.3438,512.1719 L76.3438,539.1719 M63.3438,520.1719 L89.3438,520.1719 M76.3438,539.1719 L63.3438,554.1719 M76.3438,539.1719 L89.3438,554.1719 " fill="none" style="stroke:#4B3F8A;stroke-width:1.0;"/><text fill="#4B3F8A" font-family="IBM Plex Sans" font-size="14" lengthAdjust="spacing" textLength="55" x="48.8438" y="570.7051">Henviser</text></g><!--entity V--><g id="elem_V"><ellipse cx="76.3438" cy="1268.1719" fill="#E6F4F6" rx="8" ry="8" style="stroke:#4B3F8A;stroke-width:1.0;"/><path d="M76.3438,1276.1719 L76.3438,1303.1719 M63.3438,1284.1719 L89.3438,1284.1719 M76.3438,1303.1719 L63.3438,1318.1719 M76.3438,1303.1719 L89.3438,1318.1719 " fill="none" style="stroke:#4B3F8A;stroke-width:1.0;"/><text fill="#4B3F8A" font-family="IBM Plex Sans" font-size="14" lengthAdjust="spacing" textLength="51" x="50.8438" y="1334.7051">Visitator</text></g><!--link H to UC11--><g id="link_H_UC11"><path d="M79.1538,495.0819 C83.7738,411.0219 98.6838,218.4319 139.8438,169.6719 C156.9438,149.4219 177.9008,139.7288 202.5708,133.5988 " fill="none" id="H-to-UC11" style="stroke:#000000;stroke-width:1.0;"/><polygon fill="#000000" points="208.3938,132.1519,198.6948,130.4402,203.5413,133.3576,200.6239,138.2042,208.3938,132.1519" style="stroke:#000000;stroke-width:1.0;"/></g><!--link H to UC12--><g id="link_H_UC12"><path d="M81.6738,494.9919 C89.7638,427.6719 109.1838,295.0319 139.8438,260.6719 C154.8938,243.8019 170.9313,235.0238 192.2513,228.4338 " fill="none" id="H-to-UC12" style="stroke:#000000;stroke-width:1.0;"/><polygon fill="#000000" points="197.9838,226.6619,188.2039,225.4981,193.2067,228.1384,190.5664,233.1413,197.9838,226.6619" style="stroke:#000000;stroke-width:1.0;"/></g><!--link H to UC13--><g id="link_H_UC13"><path d="M80.8438,495.1519 C86.5138,454.1019 101.3237,390.5419 139.8438,351.6719 C158.9938,332.3519 181.1079,322.7769 205.9879,316.4669 " fill="none" id="H-to-UC13" style="stroke:#000000;stroke-width:1.0;"/><polygon fill="#000000" points="211.8038,314.9919,202.0966,313.3271,206.9572,316.221,204.0633,321.0816,211.8038,314.9919" style="stroke:#000000;stroke-width:1.0;"/></g><!--link H to UC14--><g id="link_H_UC14"><path d="M96.7838,494.9419 C107.3438,476.8519 121.9438,456.4519 139.8438,442.6719 C156.7338,429.6719 171.9991,422.1514 192.0191,415.3914 " fill="none" id="H-to-UC14" style="stroke:#000000;stroke-width:1.0;"/><polygon fill="#000000" points="197.7038,413.4719,187.8971,412.5613,192.9665,415.0715,190.4564,420.1409,197.7038,413.4719" style="stroke:#000000;stroke-width:1.0;"/></g><!--link H to UC15--><g id="link_H_UC15"><path d="M104.2338,528.1819 C130.1838,521.9119 164.6013,513.5999 198.6913,505.3699 " fill="none" id="H-to-UC15" style="stroke:#000000;stroke-width:1.0;"/><polygon fill="#000000" points="204.5238,503.9619,194.8364,502.1857,199.6634,505.1353,196.7138,509.9623,204.5238,503.9619" style="stroke:#000000;stroke-width:1.0;"/></g><!--link H to UC16--><g id="link_H_UC16"><path d="M104.2338,541.0219 C131.5138,547.4719 168.7743,556.2731 203.8843,564.5631 " fill="none" id="H-to-UC16" style="stroke:#000000;stroke-width:1.0;"/><polygon fill="#000000" points="209.7238,565.9419,201.8838,559.9808,204.8576,564.7929,200.0454,567.7667,209.7238,565.9419" style="stroke:#000000;stroke-width:1.0;"/></g><!--link V to UC21--><g id="link_V_UC21"><path d="M101.8537,1298.6719 C123.5638,1298.6719 150.4938,1298.6719 181.3238,1298.6719 " fill="none" id="V-to-UC21" style="stroke:#000000;stroke-width:1.0;"/><polygon fill="#000000" points="187.3238,1298.6719,178.3238,1294.6719,182.3238,1298.6719,178.3238,1302.6719,187.3238,1298.6719" style="stroke:#000000;stroke-width:1.0;"/></g><!--link V to UC22--><g id="link_V_UC22"><path d="M101.8438,1318.7519 C112.9738,1327.2119 126.5938,1336.6919 139.8438,1343.6719 C160.8438,1354.7219 179.4065,1362.2506 201.1065,1369.6706 " fill="none" id="V-to-UC22" style="stroke:#000000;stroke-width:1.0;"/><polygon fill="#000000" points="206.7838,1371.6119,199.562,1364.9151,202.0527,1369.9942,196.9737,1372.4848,206.7838,1371.6119" style="stroke:#000000;stroke-width:1.0;"/></g><!--link V to UC23--><g id="link_V_UC23"><path d="M86.5638,1338.2119 C95.4938,1368.3919 111.8938,1409.0219 139.8438,1434.6719 C155.1538,1448.7219 169.4007,1456.5695 188.9407,1463.4095 " fill="none" id="V-to-UC23" style="stroke:#000000;stroke-width:1.0;"/><polygon fill="#000000" points="194.6038,1465.3919,187.4307,1458.643,189.8845,1463.7399,184.7876,1466.1937,194.6038,1465.3919" style="stroke:#000000;stroke-width:1.0;"/></g><!--link V to UC24--><g id="link_V_UC24"><path d="M77.6337,1338.4219 C80.1337,1388.3719 91.7838,1473.7919 139.8438,1525.6719 C158.5438,1545.8519 180.9071,1555.7198 206.0771,1562.0898 " fill="none" id="V-to-UC24" style="stroke:#000000;stroke-width:1.0;"/><polygon fill="#000000" points="211.8938,1563.5619,204.1502,1557.476,207.0466,1562.3352,202.1874,1565.2315,211.8938,1563.5619" style="stroke:#000000;stroke-width:1.0;"/></g><!--link V to UC25--><g id="link_V_UC25"><path d="M80.3038,1338.3119 C86.7238,1414.0019 104.2738,1575.2819 139.8438,1616.6719 C153.5438,1632.6119 167.51,1641.0704 187.31,1647.8804 " fill="none" id="V-to-UC25" style="stroke:#000000;stroke-width:1.0;"/><polygon fill="#000000" points="192.9838,1649.8319,185.774,1643.1222,188.2556,1648.2057,183.1721,1650.6872,192.9838,1649.8319" style="stroke:#000000;stroke-width:1.0;"/></g><!--link V to UC26--><g id="link_V_UC26"><path d="M78.3738,1338.4519 C81.5038,1429.9419 93.7938,1651.7319 139.8438,1707.6719 C157.4738,1729.0919 180.0584,1739.1458 205.6384,1745.2658 " fill="none" id="V-to-UC26" style="stroke:#000000;stroke-width:1.0;"/><polygon fill="#000000" points="211.4738,1746.6619,203.6515,1740.6775,206.611,1745.4985,201.79,1748.4579,211.4738,1746.6619" style="stroke:#000000;stroke-width:1.0;"/></g><!--link H to UC32--><g id="link_H_UC32"><path d="M100.7438,574.2419 C111.4738,590.5719 125.0838,609.0619 139.8438,623.6719 C166.3838,649.9519 196.533,670.4579 223.333,686.5879 " fill="none" id="H-to-UC32" style="stroke:#000000;stroke-width:1.0;"/><polygon fill="#000000" points="228.4738,689.6819,222.8254,681.6137,224.1898,687.1035,218.7,688.468,228.4738,689.6819" style="stroke:#000000;stroke-width:1.0;"/></g><!--link H to UC33--><g id="link_H_UC33"><path d="M78.4538,574.3019 C81.7538,664.8919 94.3438,883.5119 139.8438,938.6719 C158.0938,960.8019 182.0028,970.9629 208.2428,976.9229 " fill="none" id="H-to-UC33" style="stroke:#000000;stroke-width:1.0;"/><polygon fill="#000000" points="214.0938,978.2519,206.2033,972.3578,209.2179,977.1444,204.4313,980.1591,214.0938,978.2519" style="stroke:#000000;stroke-width:1.0;"/></g><!--link V to UC31--><g id="link_V_UC31"><path d="M81.3237,1259.1019 C87.3638,1219.1319 102.4438,1158.0819 139.8438,1120.6719 C155.1638,1105.3419 170.3014,1097.0882 190.7114,1090.4082 " fill="none" id="V-to-UC31" style="stroke:#000000;stroke-width:1.0;"/><polygon fill="#000000" points="196.4138,1088.5419,186.616,1087.5398,191.6618,1090.0971,189.1044,1095.1429,196.4138,1088.5419" style="stroke:#000000;stroke-width:1.0;"/></g><!--link V to UC33--><g id="link_V_UC33"><path d="M81.8638,1258.9219 C90.1638,1192.5819 109.7738,1063.2419 139.8438,1029.6719 C158.7838,1008.5319 182.4057,998.6636 208.2957,992.7236 " fill="none" id="V-to-UC33" style="stroke:#000000;stroke-width:1.0;"/><polygon fill="#000000" points="214.1438,991.3819,204.4772,989.4958,209.2704,992.5,206.2662,997.2932,214.1438,991.3819" style="stroke:#000000;stroke-width:1.0;"/></g><!--link V to UC34--><g id="link_V_UC34"><path d="M101.9338,1281.2619 C113.4338,1273.1519 127.3138,1263.3919 139.8438,1254.6719 C169.9538,1233.7219 199.2437,1213.5926 224.7337,1196.1326 " fill="none" id="V-to-UC34" style="stroke:#000000;stroke-width:1.0;"/><polygon fill="#000000" points="229.6838,1192.7419,219.9982,1194.5278,225.5587,1195.5674,224.5191,1201.1279,229.6838,1192.7419" style="stroke:#000000;stroke-width:1.0;"/></g><!--link H to UC35--><g id="link_H_UC35"><path d="M77.9538,574.4219 C80.8238,623.3919 92.8938,706.2819 139.8438,756.6719 C156.5838,774.6419 175.0936,783.9224 198.0036,790.6024 " fill="none" id="H-to-UC35" style="stroke:#000000;stroke-width:1.0;"/><polygon fill="#000000" points="203.7638,792.2819,196.2432,785.9225,198.9636,790.8823,194.0039,793.6027,203.7638,792.2819" style="stroke:#000000;stroke-width:1.0;"/></g><!--link V to UC35--><g id="link_V_UC35"><path d="M77.7038,1258.8619 C79.3837,1160.6419 88.6938,910.2519 139.8438,847.6719 C155.2738,828.7919 173.362,819.4253 196.332,813.0553 " fill="none" id="V-to-UC35" style="stroke:#000000;stroke-width:1.0;"/><polygon fill="#000000" points="202.1138,811.4519,192.3721,810.0024,197.2956,812.788,194.51,817.7115,202.1138,811.4519" style="stroke:#000000;stroke-width:1.0;"/></g><!--link H to UC36--><g id="link_H_UC36"><path d="M80.4438,574.2719 C87.0438,649.0219 104.8438,807.0619 139.8438,847.6719 C151.4038,861.0819 161.6272,868.3282 178.1472,875.0582 " fill="none" id="H-to-UC36" style="stroke:#000000;stroke-width:1.0;"/><polygon fill="#000000" points="183.7038,877.3219,176.878,870.222,179.0733,875.4355,173.8597,877.6308,183.7038,877.3219" style="stroke:#000000;stroke-width:1.0;"/></g><!--link V to UC36--><g id="link_V_UC36"><path d="M79.2638,1258.9919 C84.0737,1175.7519 99.2738,986.6119 139.8438,938.6719 C151.0238,925.4519 160.7896,918.3917 176.9396,911.7917 " fill="none" id="V-to-UC36" style="stroke:#000000;stroke-width:1.0;"/><polygon fill="#000000" points="182.4938,909.5219,172.6494,909.2238,177.8653,911.4134,175.6758,916.6293,182.4938,909.5219" style="stroke:#000000;stroke-width:1.0;"/></g><!--SRC=[TPJDZjCm4CVlUOeXUwkqYCH9wGcftMtK5LeMiMnFlRYDavguTcMx1OIGEF44l0kSsJVXIPXyj8vtsvn67l_cFr_E2xjc6mPRGRaCJCNbbcgwWILTLQLMEvbVAQ4qN6HnbcIlUpToLj2Ti9cIzXt523UJMtWls1UufzBqxdL1j6GQHhrpiwQv-inb2GKLXWKzrywm5JKClWK0asU9D5_jKJfdkZkz7brdqn6UrlbqPz4a9eG4t_kXwSgYwsJWwNGwnWgV14uc91kD_S3T6GOMhB1W5MXUhYtaNBELvKe6bbl189lTV80PatjkP5teln-_u07hkggBkziplHIy2e8sfx2zo7G8rC3ic4_ddNF3BKMpSS_HFSI138EWbgIoHBbmCBXdLQqFqM00Vt-32zb5Qoe_j3UCNaPmjzNCMhQGwsEU8VG-57kuYY8VY-4Z5vNyse2vgdOR9Z4vL0uzBFOn0ey_PQxFYnquudD9BRUa9Qkeo4_IBPRuM0gtId9i6Qib3IQuC-49jTJ7XeZb5jKMaXRbun_DS3rFSSDw0qwsFsxRtvjPDow__p7slzC2LIvajUVOKUs9DL9nv6FOVysHqYstrLnfxf4j5liOWV5gnRRsm2sLgjZpQSV4nn8O5_KQdHzRYoK-bcBz-8wOOVBqq3eizR7XSKaEPTadEz9nvzjFslO_v7jM6O6A9kTKA1I-o2RPg-d47mF1COpbHkNObGqkocwx5QpUwF2998byB8O9CtlQRDSfw835FaOWewNWPRrVbQ3wp2iWnCSIk6zMM2hB2rurpsqXBHUmxlyv44nyC8Mnm9bB9FQB-YRtt-f1B_Mn8RnLMhSjDRImL62TQWC5-oJ27jRCOGQNbs_QFyNHZ9r9d9auCtKc_iZcdOtBVZHZPn9d9ivCdJbqMH0dJHn7NE3-gKk8k6Z4vOO5pftv7m00]--></g></svg>