<?xml version="1.0" encoding="us-ascii" standalone="no"?><svg xmlns="http://www.w3.org/2000/svg" xmlns:xlink="http://www.w3.org/1999/xlink" contentStyleType="text/css" height="237px" preserveAspectRatio="none" style="width:284px;height:237px;background:#FFFFFF;" version="1.1" viewBox="0 0 284 237" width="284px" zoomAndPan="magnify"><defs/><g><text fill="#000000" font-family="sans-serif" font-size="14" font-weight="bold" lengthAdjust="spacing" textLength="227" x="27.75" y="29.5332">REF-003 Informationsanmodning</text><line style="stroke:#181818;stroke-width:0.5;stroke-dasharray:5.0,5.0;" x1="37" x2="37" y1="76.2188" y2="201.2734"/><line style="stroke:#181818;stroke-width:0.5;stroke-dasharray:5.0,5.0;" x1="176.5" x2="176.5" y1="76.2188" y2="201.2734"/><line style="stroke:#181818;stroke-width:0.5;stroke-dasharray:5.0,5.0;" x1="243.5" x2="243.5" y1="76.2188" y2="201.2734"/><rect fill="#E2E2F0" height="31.6094" rx="2.5" ry="2.5" style="stroke:#181818;stroke-width:0.5;" width="65" x="5" y="43.6094"/><text fill="#000000" font-family="sans-serif" font-size="14" lengthAdjust="spacing" textLength="51" x="12" y="65.1426">Visitator</text><rect fill="#E2E2F0" height="31.6094" rx="2.5" ry="2.5" style="stroke:#181818;stroke-width:0.5;" width="65" x="5" y="200.2734"/><text fill="#000000" font-family="sans-serif" font-size="14" lengthAdjust="spacing" textLength="51" x="12" y="221.8066">Visitator</text><rect fill="#E2E2F0" height="31.6094" rx="2.5" ry="2.5" style="stroke:#181818;stroke-width:0.5;" width="46" x="153.5" y="43.6094"/><text fill="#000000" font-family="sans-serif" font-size="14" lengthAdjust="spacing" textLength="32" x="160.5" y="65.1426">EHMI</text><rect fill="#E2E2F0" height="31.6094" rx="2.5" ry="2.5" style="stroke:#181818;stroke-width:0.5;" width="46" x="153.5" y="200.2734"/><text fill="#000000" font-family="sans-serif" font-size="14" lengthAdjust="spacing" textLength="32" x="160.5" y="221.8066">EHMI</text><rect fill="#E2E2F0" height="31.6094" rx="2.5" ry="2.5" style="stroke:#181818;stroke-width:0.5;" width="69" x="209.5" y="43.6094"/><text fill="#000000" font-family="sans-serif" font-size="14" lengthAdjust="spacing" textLength="55" x="216.5" y="65.1426">Henviser</text><rect fill="#E2E2F0" height="31.6094" rx="2.5" ry="2.5" style="stroke:#181818;stroke-width:0.5;" width="69" x="209.5" y="200.2734"/><text fill="#000000" font-family="sans-serif" font-size="14" lengthAdjust="spacing" textLength="55" x="216.5" y="221.8066">Henviser</text><polygon fill="#181818" points="164.5,104.5703,174.5,108.5703,164.5,112.5703,168.5,108.5703" style="stroke:#181818;stroke-width:1.0;"/><line style="stroke:#181818;stroke-width:1.0;" x1="37.5" x2="170.5" y1="108.5703" y2="108.5703"/><text fill="#000000" font-family="sans-serif" font-size="13" lengthAdjust="spacing" textLength="115" x="44.5" y="103.7139">Request Information</text><polygon fill="#181818" points="232,118.5703,242,122.5703,232,126.5703,236,122.5703" style="stroke:#181818;stroke-width:1.0;"/><line style="stroke:#181818;stroke-width:1.0;" x1="176.5" x2="238" y1="122.5703" y2="122.5703"/><polygon fill="#181818" points="187.5,148.9219,177.5,152.9219,187.5,156.9219,183.5,152.9219" style="stroke:#181818;stroke-width:1.0;"/><line style="stroke:#181818;stroke-width:1.0;stroke-dasharray:2.0,2.0;" x1="181.5" x2="243" y1="152.9219" y2="152.9219"/><text fill="#000000" font-family="sans-serif" font-size="13" lengthAdjust="spacing" textLength="27" x="193.5" y="148.0654">ACK</text><polygon fill="#181818" points="48.5,179.2734,38.5,183.2734,48.5,187.2734,44.5,183.2734" style="stroke:#181818;stroke-width:1.0;"/><line style="stroke:#181818;stroke-width:1.0;stroke-dasharray:2.0,2.0;" x1="42.5" x2="175.5" y1="183.2734" y2="183.2734"/><text fill="#000000" font-family="sans-serif" font-size="13" lengthAdjust="spacing" textLength="27" x="54.5" y="178.417">ACK</text><!--SRC=[AyaioKbL279rqpKmC5Rmp4lBByfDBCdCpojEpClDJydBp4ldAaWiAibCpYn8p2jH2CiipYn9BCalGX5rzV3rH17mICqhoonEBUA2grVGjGChKx1I24ejB4qjBa6sZGii1LG2rmXZAEWYD3ewUqCL0iKG9eCb0000]--></g></svg>