<?xml version="1.0" encoding="us-ascii" standalone="no"?><svg xmlns="http://www.w3.org/2000/svg" xmlns:xlink="http://www.w3.org/1999/xlink" contentStyleType="text/css" height="201px" preserveAspectRatio="none" style="width:542px;height:201px;background:#FFFFFF;" version="1.1" viewBox="0 0 542 201" width="542px" zoomAndPan="magnify"><defs/><g><!--entity Henviser--><g id="elem_Henviser"><ellipse cx="33.5" cy="14" fill="#F1F1F1" rx="8" ry="8" style="stroke:#181818;stroke-width:0.5;"/><path d="M33.5,22 L33.5,49 M20.5,30 L46.5,30 M33.5,49 L20.5,64 M33.5,49 L46.5,64 " fill="none" style="stroke:#181818;stroke-width:0.5;"/><text fill="#000000" font-family="sans-serif" font-size="14" lengthAdjust="spacing" textLength="55" x="6" y="80.0332">Henviser</text></g><!--entity Visitator--><g id="elem_Visitator"><ellipse cx="33.5" cy="127" fill="#F1F1F1" rx="8" ry="8" style="stroke:#181818;stroke-width:0.5;"/><path d="M33.5,135 L33.5,162 M20.5,143 L46.5,143 M33.5,162 L20.5,177 M33.5,162 L46.5,177 " fill="none" style="stroke:#181818;stroke-width:0.5;"/><text fill="#000000" font-family="sans-serif" font-size="14" lengthAdjust="spacing" textLength="51" x="8" y="193.0332">Visitator</text></g><g id="elem_UC36"><ellipse cx="203.9031" cy="101.4034" fill="#F1F1F1" rx="82.9031" ry="27.9034" style="stroke:#181818;stroke-width:0.5;"/><text fill="#000000" font-family="sans-serif" font-size="14" lengthAdjust="spacing" textLength="101" x="153.4031" y="96.3272">3.6 Korrektions-</text><text fill="#000000" font-family="sans-serif" font-size="14" lengthAdjust="spacing" textLength="35" x="186.4031" y="113.9366">aftale</text></g><g id="elem_UC13"><ellipse cx="441.9654" cy="101.4147" fill="#F1F1F1" rx="94.9654" ry="27.9147" style="stroke:#181818;stroke-width:0.5;"/><text fill="#000000" font-family="sans-serif" font-size="14" lengthAdjust="spacing" textLength="118" x="381.0113" y="96.8679">1.3 &#198;ndre afsendt</text><text fill="#000000" font-family="sans-serif" font-size="14" lengthAdjust="spacing" textLength="68" x="406.0113" y="114.4773">henvisning</text></g><!--link Henviser to UC36--><g id="link_Henviser_UC36"><path d="M61.2,53.53 C83.56,61.1 110.6064,70.2474 138.9864,79.8474 " fill="none" id="Henviser-to-UC36" style="stroke:#181818;stroke-width:1.0;"/><polygon fill="#181818" points="144.67,81.77,137.4263,75.097,139.9336,80.1678,134.8628,82.6752,144.67,81.77" style="stroke:#181818;stroke-width:1.0;"/></g><!--link Visitator to UC36--><g id="link_Visitator_UC36"><path d="M59,149.36 C81.27,141.96 109.326,132.6315 138.556,122.9215 " fill="none" id="Visitator-to-UC36" style="stroke:#181818;stroke-width:1.0;"/><polygon fill="#181818" points="144.25,121.03,134.4479,120.0713,139.505,122.6063,136.9699,127.6633,144.25,121.03" style="stroke:#181818;stroke-width:1.0;"/></g><!--link UC36 to UC13--><g id="link_UC36_UC13"><path d="M287.21,101.5 C306.5,101.5 321.2,101.5 340.96,101.5 " fill="none" id="UC36-to-UC13" style="stroke:#181818;stroke-width:1.0;"/><polygon fill="#181818" points="346.96,101.5,337.96,97.5,341.96,101.5,337.96,105.5,346.96,101.5" style="stroke:#181818;stroke-width:1.0;"/></g><!--SRC=[HOt12i9034Jl-nMXzosKXHwzU14ywwcNqAPji6GXYVq4VymVq-fgBs5ccCbRQ7Jm3ChJx32mKk-S9M3lMU54ihAH5djbOyUt2k5krACHLAbkuPnLwRRjB7Q2e-D25Q31vPZQlThK2PuF6PG0HoCPl9FvGn2MgGoQ5C8F2p4UlZ_-v3qAsossIIy0]--></g></svg>